<?xml version="1.0" ?><svg xmlns="http://www.w3.org/2000/svg" viewBox="0 0 6468 1874" xml:space="preserve"><path fill="none" d="M4596 1876H2V2h6468v1874H4596m524.211-479.637c-51.745-.025-103.49-.053-155.236-.054-1.646 0-3.293.291-6.777.052-58.734-.023-117.468-.05-176.2-.05-1.316 0-2.632.282-5.788.036-60.065-.029-120.13-.06-180.195-.068-1.317 0-2.634.267-5.796.03-1.327-.053-2.655-.153-3.982-.153-81.398.017-162.796.04-244.195.087-2.648.002-5.297.276-9.804.032-74.727-.02-149.454-.04-224.181-.042-1.321 0-2.642.236-5.828.003-68.726-.019-137.453-.04-206.18-.043-1.322 0-2.644.206-5.837.004-48.127-.029-96.255-.087-144.383-.07-18.583.007-37.166.187-57.62.053-30.55-.037-61.1-.121-91.651-.099-46.157.034-92.315.143-140.356.021-72.047.03-144.095.062-218.027-.04-53.38.017-106.76.035-162.018-.016-54.711-.001-109.422-.003-166.01-.035-80.946 0-161.892.044-242.837-.054-10.89-.014-20.789 3.2-30.88 7.352v42.833c5.594 3.786 10.965 6.01 17.743 5.991 80.612-.223 161.224-.146 243.71-.14 58.042-.003 116.084-.006 176 .011 55.375-.01 110.751-.019 168 .004 72.043-.015 144.085-.03 218 .007 76.71-.021 153.42-.043 232 .02 66.71-.032 133.42-.064 202 .013 41.165.031 82.33.097 123.496.08 28.879-.01 57.758-.134 88.505-.07 69.074.047 138.149.103 207.223.128 6.97.002 13.938-.178 22.774-.106 83.389.055 166.777.112 250.165.151 1.988.001 3.975-.2 7.829-.112 53.421.044 106.844.103 160.266.115 7.956.001 15.913-.217 25.732-.106 54.744.046 109.488.102 164.232.12 5.301.002 10.602-.228 17.762-.1 43.44.042 86.88.108 130.321.107 9.94 0 19.879-.233 31.677-.094 46.094.044 92.19.106 138.284.113 7.287.001 14.572-.247 23.715-.102 56.068.048 112.135.1 168.203.125 1.98.001 3.96-.263 7.795-.112 36.124.04 72.248.114 108.372.097 11.257-.005 22.514-.258 35.624-.09 60.737.05 121.475.104 182.212.131 1.98.001 3.959-.278 7.79-.121 61.252.046 122.505.1 183.758.114 2.985 0 6.007-.114 8.95-.575 11.975-1.873 21.605-12.066 23.104-24.246 1.425-11.588-5.395-23.986-16.572-27.91-6.075-2.134-12.848-3.146-19.311-3.17-57.258-.217-114.516-.105-171.774-.06-3.318.002-6.637.27-11.798.014-61.076-.012-122.152-.028-183.228-.018-1.648 0-3.295.28-6.787.034-39.447-.026-78.893-.077-118.34-.055-7.944.004-15.887.288-25.67.045-56.397-.02-112.795-.043-169.192-.039-1.647 0-3.294.282-6.787.033-51.738-.023-103.478-.05-155.216-.05-1.647 0-3.293.29-6.786.044M572.962 664.373c5.96-36.805-14.399-59.923-41.74-80.925-10.184 22.658-14.313 44.734-4.426 67.22 4.5 10.235 11.101 19.65 17.518 28.903 4.292 6.189 9.94 11.439 14.678 16.77l-25.207 61.9c1.102-41.028-24.946-61.256-56.706-78.101-10.096 32.322-4.28 59.474 18.431 82.695 8.776 8.974 18.598 16.925 28.744 26.063l-13.8 62.907c-4.85-17.005-10.005-33.014-24.278-43.932-13.759-10.524-28.519-18.547-46.528-22.59 0 6.99-.15 12.617.026 18.236.664 21.26 8.39 39.098 24.431 53.62 12.49 11.308 26.457 19.956 42.061 26.996l-3.064 58.856c-15.936-35.1-46.637-44.053-80.758-49.127-1.57 9.426 1.302 16.973 3.491 24.47 4.176 14.302 11.067 27.183 22.92 36.638 11.76 9.381 24.684 16.86 39.136 21.44 5.662 1.794 11.319 3.603 17.015 5.417l7.618 55.868c-22.212-32.698-55.257-35.914-90.361-35.28 0 1.763-.232 2.803.033 3.696 9.095 30.653 26.807 53.38 58.792 62.199 13.343 3.679 27.03 6.107 40.865 9.17 4.921 15.929 10.11 32.727 14.61 50.085 0 0-.638.62-1.948.277-10.446-11.441-23.242-19.176-38.6-20.843-12.153-1.319-24.548-.93-36.808-.503-6.046.211-12.03 2.224-18.709 3.555 12.987 27.348 30.796 47.38 60.52 53.308 14.213 2.835 28.568 5.883 43.304 3.102 3.122-.589 6.45-.086 8.984-.086 8.156 15.443 15.903 30.11 22.657 46.059-.267.47-.534.94-2.227 1.119-9.424-6.453-19.369-11.9-31.075-12.159-9.52-.21-19.164-.271-28.565.995-12.335 1.662-24.342 5.116-36.28 11.445 18.687 25.275 40.709 42.445 73.094 42.63 17.364.1 34.336-1.808 51-6.946 10.82 14.011 21.325 27.616 30.565 42.245-.396.372-.792.743-2.61.708-31.728-16.74-76.846 1.044-95.601 18.398 12.554 12.283 26.544 22.32 43.56 27.034 17.378 4.815 35.037 3.523 52.215-1.187 12.034-3.3 23.661-8.082 35.421-12.185l39.704 36.406-.892 2.271c-18.191-6.503-36.083-6.118-53.596 1.24-17.196 7.223-32.363 17.317-45.61 31.506 19.716 13.344 39.615 21.603 62.572 20.383 15.558-.826 29.98-5.924 43.706-12.788 9.711-4.856 18.868-10.821 28.373-16.35 2.665 1.691 5.25 3.199 7.696 4.904 24.357 16.973 50.072 31.569 76.904 44.249 29.246 13.82 59.387 25.21 91.224 31.192 35.725 6.713 70.475 16.39 103.891 30.735 1.889.81 3.637 1.948 6.465 3.485-28.322 16.104-54.734 32.416-76.823 55.981l20.65 18.157c24.988-25.516 52.725-45.695 83.425-61.59 30.894 16.664 58.793 36.229 82.686 62.015l20.939-18.624c-22.525-23.766-49.264-40.268-77.328-56.37 26.79-12.068 53.247-20.796 80.432-27.309 19.999-4.791 40.34-8.345 60.065-14.055 42.756-12.378 82.46-31.698 119.907-55.691 9.128-5.848 18.23-11.736 27.094-17.445 53.547 38.511 96.98 37.264 133.537 8.025-15.717-14.818-32.956-26.865-53.754-33.27-12.348-3.802-24.738-4.19-37.231-.624-2.968.847-6.076 1.2-9.12 1.78l-.483-1.354 40.123-36.191c15.586 4.714 30.246 10.06 45.346 13.45 14.31 3.215 29.19 3.543 43.454-.846 16.174-4.976 29.845-14.431 41.98-26.112.57-.548.545-1.713.774-2.51-31.143-20.69-65.026-32.045-99.356-16.804-.325-.405-.65-.81-.364-2.41l32.666-40.394c16.468 5.045 33.139 7.079 50.224 6.874 32.204-.386 54.721-16.79 72.88-42.198-1.621-1.111-2.594-2.018-3.742-2.53-15.655-6.97-32.145-10.57-49.186-11.347-16.922-.772-31.858 5.24-46.216 14.001 0 0-.613-.595-.588-2.016l24.891-46.008c11.567 0 22.776.579 33.906-.113 29.177-1.812 53.007-13.612 69.042-38.923 3.298-5.206 6.31-10.594 9.955-16.745-19.193-5.673-37.268-6.234-55.413-3.734-13.068 1.8-24.82 6.995-34.325 16.569-1.385 1.395-3.181 2.381-5.718 2.7-.314-.281-.628-.563-.71-2.322l14.958-47.709c18.926-1.247 37.214-5.391 54.595-13.329 25.825-11.793 37.886-33.71 45.323-59.932-13.849-1.39-26.72-.45-39.393 2.097-20.235 4.067-37.549 13-48.7 31.364-.448.739-1.48 1.122-2.152 1.785 0 0 .081.118-1.219-1.272l8.348-55.592c21.608-4.512 40.506-13.362 56.705-27.144 18.028-15.34 24.099-36.268 26.473-60.371-35.584 5.498-66.97 14.552-82.049 50.703l-2.559-60.078c1.801-1.025 3.171-1.988 4.677-2.634 16.764-7.195 31.212-17.664 43.5-31.07 16.972-18.515 19.764-40.822 17.882-65.482-17.85 4.548-32.731 12.17-46.239 22.722-13.966 10.911-19.883 26.473-24.223 43.748l-14.241-63.292c.148-.293.221-.69.457-.863 1.862-1.365 3.795-2.635 5.631-4.032 23.85-18.136 44.434-38.401 45.847-71.01.468-10.808-.618-21.405-4.287-32.235-11.987 5.504-22.013 12.373-31.257 20.582-14.262 12.664-23.755 27.572-23.92 47.339-.02 2.464-1.031 4.919-1.988 9.176l-25.22-61.61c38.061-35.558 48.3-73.416 27.574-111.152-9.623 5.606-17.096 13.552-24.22 21.832-6.995 8.13-13.52 16.883-15.559 27.52-1.988 10.372-2.217 21.082-3.225 31.71l-34.163-54.395c32.678-45.598 31.148-83.818 5.897-111.229-10.837 11.485-19.594 24.212-25.439 38.957-5.902 14.89-3.886 29.862-.21 46.528l-44.884-46.553c22.972-45.32 18.365-84.576-11.597-109.244-8.137 10.651-15.568 26.711-18.267 39.35-2.397 11.22-2.933 22.354 1.37 33.285 1.703 4.325 3.486 8.62 4.118 14.105-.344.418-.688.835-2.183.536l-48.062-36.169c1.867-10.554 4.297-20.862 5.418-31.311 2.515-23.457-2.207-44.854-19.934-61.916-4.673-4.498-8.786-9.753-15.916-12.51-5.116 11.795-8.186 23.41-9.954 35.617-2.25 15.54.715 29.587 9.177 42.62 2.16 3.327 4.492 6.542 5.789 10.704-.311.306-.622.612-2.198.376-19.201-9.49-38.402-18.98-58.48-29.577-22.782-9.405-45.79-18.094-70.237-22.267 6.456 3.095 13.247 5.212 19.896 7.712 13.036 4.901 26.012 9.968 38.962 15.093 1.91.756 5.053 1.622.243 4.288-32.259-7.015-67.536 12.94-79.782 45.524 14.438 4.494 28.866 6.808 43.977 3.699 14.955-3.077 26.817-11.431 37.564-21.493 7.207-6.748 13.552-14.419 20.692-22.118 21.07 10.947 42.142 21.858 61.273 36.563-16.81-3.67-33.51-7.392-50.062-.378-16.198 6.864-29.43 17.704-40.454 31.458 31.507 20.603 67.338 18.094 107.868-19.662 14.372 7.641 47.633 35.24 52.21 44.355-16.4-6.93-32.26-10.737-48.479-6.593-16.297 4.164-30.622 12.539-43.805 24.292 21.114 17.29 43.817 25.08 70.625 17.78 15.21-4.142 29.36-10.414 42.647-19.795 17.286 16.94 32.93 34.479 45.777 54.499 0 0-.663.657-2.04.446-32.04-21.538-66.541-21.32-96.523 1.045 3.284 3.319 6.323 6.785 9.764 9.792 10.896 9.52 22.921 17.56 37.554 19.108 15.09 1.597 30.335 1.176 45.058-3.591 6.904-2.235 13.759-4.618 21.272-7.148 11.79 17.12 22.262 35.1 30.332 55.023-.349.417-.697.833-2.25.624-9.21-7.04-17.93-14.627-29.864-17.303-18.836-4.225-36.955-1.328-54.967 4.048-2.036.608-3.895 1.81-6.467 3.037 2.945 4.205 5.208 7.871 7.894 11.196 10.633 13.16 22.85 24.194 39.972 28.118 17.001 3.896 34.1 4.26 51.263 1.026 3.197-.603 6.418-1.076 9.41-1.572 9.43 18.123 20.525 48.802 21.613 61.365-11.87-14.123-23.639-25.469-40.748-28.984-16.767-3.445-33.404-2.814-50.683-.687.554 2.316.678 3.614 1.165 4.758 10.901 25.62 28.121 44.418 56.51 49.931 14.21 2.76 28.726 3.946 43.663 5.917 5.862 15.681 12.497 54.857 10.139 64.12-16.536-39.054-49.646-46.031-86.246-47.746 5.865 42 31.383 68.733 91.068 77.337 2.282 22.164 2.773 44.497-.213 67.016-6-17.501-12.407-34.428-28.861-45.181-15.683-10.25-32.508-16.914-51.314-19.523.945 41.658 15.297 71.723 78.78 93.964-2.948 20.33-5.456 40.836-12.377 60.449-2.075-43.739-37.203-67.388-68.173-75.987-7.701 39.064 3.087 74.156 61.208 107.02-5.826 19.185-11.868 38.407-21.345 56.336 4.436-43.058-23.194-71.891-57.162-89.071-1.862 11.48-4.488 22.493-5.28 33.634-1.63 22.913 8.11 42.03 22.351 59.064 8.038 9.615 16.766 18.653 25.923 28.77-7.68 14.587-16.635 30.906-28.246 45.922 9.675-42.226-12.277-70.035-41.13-95.834-2.093 3.973-3.71 6.86-5.16 9.828-5.91 12.108-8.881 25.094-9.757 38.373-.942 14.276 4.102 27.433 9.953 40.203 6.402 13.975 15.25 26.346 25.531 37.47-12.838 19.595-28.29 36.76-35.296 38.595 14.238-38.735-2.903-68.716-25.776-98.512-14.207 17.858-23.657 36.108-24.535 57.943-.71 17.649 4.143 34.183 11.073 50.141 3.281 7.556 7.339 14.774 11.29 22.637-12.41 11.327-24.678 22.602-39.45 31.913 20.454-36.84 8.11-69.986-9.156-103.956-2.984 2.377-5.11 3.821-6.946 5.569-25.736 24.496-34.582 54.481-28.117 89.03 2.24 11.973 5.861 23.689 9.218 36.971-13.99 8.094-28.616 16.555-44.13 23.893-.325-.349-.651-.698-.371-2.254 10.67-12.374 18.504-26.042 18.767-42.908.143-9.215.72-18.568-.557-27.625-1.605-11.368-4.91-22.497-7.723-34.781-12.986 7.169-22.696 15.57-31.366 25.24-18.693 20.852-21.73 46.356-20.926 72.745.3 9.821 2.146 19.595 3.349 29.915-16.22 6.912-32.657 13.103-50.025 16.805.92-1.719 2.148-2.772 3.39-3.808 12.826-10.698 22.588-23.503 26.65-39.976 4.738-19.223 4.397-38.684 1.932-58.17-.19-1.492-1.265-2.872-2.14-4.759-24.7 10.138-45.958 23.796-56.998 48.878-7.534 17.116-11.79 35.208-11.812 54.102-.005 4.51-.212 9.018-.32 13.239-38.6 7.57-74.73 18.65-109.555 33.784-6.524 2.836-11.839 3.353-18.685.286-29.159-13.062-59.54-22.693-90.621-30.083-6.349-1.51-12.77-2.716-17.92-3.801-1.856-14.796-2.77-28.405-5.408-41.672-4.366-21.967-13.046-41.884-31.804-55.835-10.345-7.694-21.06-14.715-33.572-18.588-.824 1.322-1.67 2.099-1.809 2.986-2.72 17.49-3.49 35.03.078 52.472 2.833 13.848 7.87 26.788 17.891 37.245 3.873 4.042 7.82 8.013 11.072 12.756 0 0-.616.779-2.083.429-15.684-4.201-30.74-10.02-45.814-16.588 4.165-19.591 4.92-38.275 2.716-57.256-3.768-32.427-23.377-53.002-49.504-69.806-1.023 1.79-1.987 2.85-2.27 4.07-2.84 12.26-6.816 24.424-8.051 36.855-2.155 21.675 1.192 42.478 15.958 59.962 1.321 1.564 2.131 3.56 3.178 5.355-16.704-5.76-30.959-14.875-44.146-23.909 3.349-13.476 7.22-25.887 9.44-38.588 6.456-36.933-5.247-67.295-34.404-90.987-15.973 21.143-31.323 68.07-10.73 102.138-.288.311-.577.622-2.046.28l-37.343-31.414c1.595-2.94 2.445-4.695 3.46-6.348 8.26-13.467 13.318-28.19 17.143-43.409 7.752-30.845-3.183-56.443-22.403-81.273-5.278 7.435-10.252 13.654-14.366 20.397-9.81 16.08-17.617 33.101-16.503 52.443.508 8.82 3.445 17.498 4.59 26.8 0 0-.638.62-1.95.277-11.802-12.48-22.946-25.489-32.737-39.396 42.11-48.95 42.6-89.679 19.666-125.986-4.638 4.476-9.262 8.607-13.51 13.094-21.161 22.353-33.668 47.674-27.476 80.048 0 0-.672.602-1.98.162-9.767-14.952-18.951-30.226-26.602-46.208 50.535-40.986 57.639-78.152 42.125-118.254-1.464.593-3.124.913-4.348 1.82-8.53 6.323-17.682 12.025-25.29 19.327-15.874 15.235-26.563 33.209-24.75 56.452.26 3.336.036 6.71.036 10.065l-2.744.337-20.182-55.945c2.981-1.833 4.866-3.128 6.87-4.2 13.936-7.462 25.852-17.445 36.712-28.85 20.23-21.245 22.215-46.877 18.898-75.23-17.934 5.935-32.91 14.759-46.148 26.516-14.557 12.928-20.127 30.265-22.25 50.733-6.433-15.815-12.795-51.792-11.437-60.43 10.98-5.075 21.762-9.44 31.962-14.89 31.345-16.746 45.696-43.507 45.527-79.276-18.704 3.073-35.568 9.17-51.098 19.444-16.611 10.99-23.306 27.98-29.125 47.73-3.832-24.6-2.337-46.952-.257-69.189 67.051-9.406 87.143-43.435 90.72-76.742-11.672-1.147-31.962 2.495-44.786 6.863-19.366 6.596-31.854 20.388-41.542 37.97.916-22.079 5.237-43.048 10.89-63.581 55.72 1.586 88.929-18.126 100.372-59.015-16.969-2.26-33.623-2.74-50.374.877-17.875 3.86-29.73 16.052-41.327 29.159 5.552-21.429 13.044-41.832 21.994-61.36 1.385-.109 2.035-.267 2.654-.187 1.649.213 3.305.441 4.922.819 18.093 4.226 36.217 3.844 54.102-.682 21.901-5.543 35.977-20.62 47.288-39.446-1.785-1.04-2.57-1.72-3.477-1.99-4.456-1.332-8.893-2.786-13.428-3.78-27.278-5.974-52.95-4.485-74.288 16.458-.232.229-.556.364-1.863-.712-.37-.394-.74-.787-.73-2.529 9.12-18.373 19.247-36.132 31.08-52.894 16.609 7.015 32.777 10.754 50.027 11.78 26.88 1.598 46.043-10.97 63.352-29.55-7.277-6.756-16.068-9.234-24.444-12.083-19.42-6.605-38.908-8.763-57.752 2.267-4.296 2.516-8.612 4.999-14.201 6.49-.467-.28-.933-.558-.794-2.109 13.676-17.836 27.825-35.24 44.65-50.014 46.516 29.791 83.903 28.35 112.942-.009-9.214-5.715-17.84-11.972-27.233-16.702-18.73-9.43-38.12-10.433-57.696-2.09-3.007 1.281-6.181 2.173-9.812 2.664 0 0-.549-.567.138-1.705 17.453-15.08 34.785-30.316 53.947-42.868 40.74 36.678 75.18 41.19 108.51 19.85-8.102-10.794-18.313-19.042-29.687-26.07-12.339-7.621-25.567-10.729-39.953-8.671-4.908.702-9.804 1.497-15.518 1.61-.466-.506-.932-1.012-.488-2.605 18.464-11.676 37.211-22.829 56.947-31.85 35.88 47.217 71.27 52.315 101.669 38.465-7.983-15.277-19.184-27.682-31.8-36.274-16.789-11.433-35.471-9.751-54.5-9.129 4.356-2.145 8.711-4.29 14.574-6.55l50.475-18.588c-3.385-.861-6.3-.418-9.044.522-15.209 5.21-30.377 10.54-47.026 15.954-13.022 5.703-26.174 11.132-39.029 17.191-11.649 5.491-22.973 11.67-35.367 16.668-.329-.27-.657-.54-.304-1.983 23.073-24.889 18.26-61.21 4.127-86.426-11.346 7.389-20.316 16.916-26.926 28.565-8.756 15.432-9.292 32.355-7.395 49.346 1.052 9.426 3.617 18.682 5.437 27.704-17.3 12.866-34.312 25.519-51.983 37.604 0 0-.666-.56-.626-2.023 17.71-31.647 7.068-59.703-10.602-87.75-35.938 34.202-30.45 71.86-11.798 110.514l-42.483 43.677c8.161-34.635-6.755-59.93-29.111-83.71-29.239 40.48-17.86 77.06 7.288 112.249-7.312 11.394-14.304 22.288-21.294 33.183-4.6 7.17-9.2 14.34-14.837 19.884m830.56 125.267c-24.033-61.617-60.516-114.427-111.4-156.956-37.989-31.752-80.788-54.763-128.04-69.482-41.262-12.853-83.414-17.982-126.648-15.744-18.956.981-37.756 2.519-56.312 6.31-77.193 15.77-142.964 52.184-197.565 109.07-30.057 31.315-53.546 66.876-71.409 106.295-21.154 46.684-30.707 95.903-31.729 146.913-.185 9.265 1.03 18.55 1.198 27.833.351 19.343 3.072 38.418 7.328 57.186 16.54 72.946 51.451 135.535 105.795 187.294 39.683 37.795 85.608 65.152 136.94 83.563 34.282 12.295 69.814 18.33 106.251 19.924 26.701 1.17 53.18-.35 79.423-4.643 43.035-7.039 83.486-21.835 121.414-43.348 37.054-21.017 69.735-47.439 97.726-79.636 24.637-28.338 44.628-59.637 59.557-94.043 15.41-35.515 26.602-72.288 30.25-111.039 1.335-14.184 2.405-28.398 3.272-42.618.25-4.089-.63-8.246-1-12.467h-261.049c-4.456 6.592-8.419 13.162-13.074 19.199-10.955 14.203-21.88 28.46-33.574 42.046-4.438 5.157-6.709 9.93-6.673 16.76.242 45.998.126 91.999.126 137.998v11.041l-13.034 3.075V987.309l-53.003 41.284c0 35.381.002 71.37-.014 107.359 0 .656-.163 1.324-.337 1.963-.08.293-.351.546-.57.786-.221.242-.485.445-1.143 1.035l-10.158-.67v-103.132l-52.543 22.476v68.184c-1.316.213-1.987.503-2.569.378a23.208 23.208 0 0 1-3.814-1.174c-36.421-14.696-68.243-35.934-92.916-66.825-42.597-53.331-59.558-113.303-46.336-181.077 8.323-42.659 26.957-80.098 57.69-110.648 51.325-51.018 112.755-74.915 185.632-64.925 20.05 2.748 39.763 6.495 58.575 15.013 42.127 19.075 76.024 47.291 100.294 86.72 3.053 4.957 6.45 6.415 12.007 6.393 49.999-.193 100-.104 149.999-.138 2.5-.001 5.001-.367 8.333-.63-2.354-6.707-4.428-12.617-6.9-20.04m2710.152 327.334V884.92H3900.34v91.652h104.046c-3.954 25.304-15.613 45.042-35.377 59.827-26.508 19.83-56.925 23.232-88.348 18.467-35.238-5.343-59.192-26.845-75.673-57.457-12.704-23.595-17.733-49.249-19.01-75.68-1.571-32.483 1.381-64.424 14.206-94.774 9.784-23.152 24.028-42.98 45.327-56.859 24.742-16.123 52.087-19.045 80.442-13.48 25.721 5.048 46.007 18.549 59.37 41.532 3.307 5.689 6.217 11.61 9.102 17.034h115.961c-.916-4.47-1.587-8.343-2.509-12.155-13.697-56.578-45.632-98.885-98.157-124.912-29.706-14.72-61.632-20.35-94.387-21.642-12.238-.483-24.547.65-36.816 1.206-22.39 1.013-44.272 5.307-65.17 13.111-71.32 26.633-116.807 77.705-139.094 149.888-8.067 26.127-11.21 53.087-12.082 80.443-.905 28.393 1.48 56.355 7.982 83.955 9.982 42.37 29.578 79.715 60.295 110.664 25.3 25.49 55.441 43.347 90.35 52.47 26.539 6.935 53.454 8.851 80.894 6.266 46.478-4.378 85.62-22.588 115.941-58.605 2.905-3.45 5.883-6.84 9.959-11.57l9.582 58.863h76.5v-26.19m-1730.002-202.21c-.442-11.271-.925-22.542-1.32-33.816-.912-26.083-5.938-51.41-14.56-75.973-17.863-50.888-49.495-90.57-96.662-117.372-33.043-18.775-69.075-27.253-106.598-29.082-30.229-1.474-60.434-.214-90.006 7.636-78.183 20.752-128.627 70.495-152.738 147.091-11.456 36.394-14.24 73.888-12.379 112.048 1.768 36.24 7.877 71.278 22.975 104.326 22.445 49.129 57.992 85.35 107.914 106.85 29.02 12.499 59.482 18.044 90.968 19.347 36.192 1.497 71.658-1.936 105.928-14.07 55.427-19.624 95.707-56.421 121.142-109.214 17.587-36.504 23.951-75.684 25.336-117.77m2661.196-88.885-34.973 199.78-1.782.106-48.14-231.505h-117.52l103.444 349.077h116.111l47.962-222.868 1.895.052 45.043 222.495h118.56l103.021-348.893H5261.28l-48.345 231.229-1.995-.094-41.773-230.964h-118.778c-1.712 10.357-3.33 20.152-5.521 31.585m-2319.962-30.055c-23.85-9.455-48.307-13.385-74.065-10.33-26.446 3.138-49.254 13.097-67.915 32.152-5.484 5.6-10.607 11.555-17.115 18.684v-42.14h-114.84v487.413h113.801v-178.641c6.335 7.206 10.89 13.81 16.778 18.859 41.63 35.69 88.695 41.182 138.863 22.424 29.126-10.89 49.602-32.734 65.625-58.857 20.942-34.145 28.265-72.032 29.505-111.327.756-23.95-1.523-47.787-7.702-71.03-12.43-46.753-37.172-84.24-82.935-107.207M5770.333 1089c0-46.662-.254-93.327.185-139.986.106-11.188 1.557-22.576 4.076-33.482 4.489-19.433 14.11-35.24 35.224-40.573 4.165-1.052 8.42-2.235 12.67-2.389 23.03-.836 43.28 5.919 48.207 33.703 3.743 21.106 4.327 42.313 4.674 63.434.89 54.314.29 108.652.316 162.98.001 3.515.25 7.03.377 10.367h113.88c.152-2.901.376-5.2.376-7.498.018-77.66.21-155.32-.174-232.978-.065-13.184-1.47-26.602-4.241-39.484-6.4-29.736-21.8-53.522-50.164-66.91-27.735-13.09-57.038-14.321-86.734-9.285-29.4 4.986-53.383 19.523-72.037 42.834-1.648 2.06-3.647 3.84-5.483 5.75-.586-.358-1.172-.715-1.759-1.071V670.898h-113.465v472.292h114.072V1089m-1058.53-295.91c-44.385-14.73-89.633-15.931-134.594-4.94-60.044 14.68-99.633 52.383-117.311 112.043-7.787 26.278-9.913 53.166-8.488 80.592.883 17.013 2.534 33.776 6.934 50.172 15.071 56.164 49.301 95.064 105.048 113.14 45.408 14.724 91.626 14.517 137.537 2.264 45.877-12.244 79.531-40.123 100.98-82.605 13.132-26.01 18.13-54.06 19.585-82.7 1.44-28.32-.987-56.492-9.638-83.691-16.041-50.433-48.586-85.423-100.054-104.275M3203.925 925.224c-3.915-14.037-6.52-28.609-11.985-42.013-18.293-44.864-50.009-76.254-96.59-91.459-35.142-11.471-71.142-12.966-107.129-5.85-63.885 12.632-105.078 51.323-124.403 113.08-12.345 39.448-12.718 79.9-5.239 120.196 7.87 42.4 28.133 77.823 63.593 103.577 28.699 20.844 61.574 29.057 96.287 30.795 23.624 1.182 47.078-.888 70.054-7.12 56.344-15.285 94.093-50.113 111.79-106.08.757-2.396 1.12-4.916 1.737-7.694H3091.92c-5.812 16.175-15.85 28.41-32.626 33.904-15.927 5.216-32.045 5.496-48.051.67-28.439-8.573-41.898-44.032-37.597-71.154h233.738c1.825-23.766.559-46.499-3.458-70.852M3380.335 1033c0-28.666-.393-57.34.198-85.992a156.59 156.59 0 0 1 4.342-33.441c3.88-15.995 11.523-30.023 28.267-36.174 6.16-2.263 12.74-4.52 19.18-4.682 25.857-.652 43.668 6.345 47.842 33.747 2.042 13.41 3.888 27.005 3.98 40.528.418 61.662.183 123.327.183 184.992v11.13h114.956c.147-3.127.374-5.72.375-8.31.019-77.998.283-155.996-.173-233.99-.115-19.584-3.597-38.957-10.638-57.467-10.184-26.773-29.28-43.711-56.612-51.855-16.781-5-33.899-5.81-51.262-5.934-40.252-.287-73.185 14.16-97.637 46.675-1.194 1.588-2.768 2.89-5.529 5.727v-43.842h-111.549v349.08h114.078V1033m2165.997-266.026V696.41H5431.27v97.36h-46.21v70.358h46.607v11.917c0 49.65-.209 99.3.093 148.947.14 22.932 2.547 45.716 8.392 67.983 3.136 11.945 7.264 23.395 16.001 32.777 11.902 12.78 26.916 19.048 43.592 22.275 20.017 3.874 40.185 3.373 60.347 1.827 14.458-1.108 28.853-2.855 42.84-6.558v-71.96c-11.7-1.101-22.681-1.521-33.429-3.33-9.532-1.604-16.416-7.758-18.698-17.32-2.14-8.968-4.202-18.223-4.278-27.368-.409-49.98-.2-99.963-.177-149.946.001-2.916.24-5.832.416-9.808h56.883v-70.179h-57.316v-26.41M4265 793.663h-70.693v349.504h114.027v-11.242c0-43.98-.329-87.962.176-131.935.179-15.531 1.7-31.134 3.827-46.537 4-28.98 21.469-46.11 49.377-53.31 15.754-4.064 31.752-2.172 47.676-2.172h9.78V785.931c-23.512-1.19-45.27 3.392-65.684 13.97-18.23 9.448-31.506 24.139-42.37 41.28-1.725 2.72-2.407 6.646-7.385 8.264v-55.781H4265M1089.083 970.108c10.291-10.868 21.066-21.324 30.785-32.682 31.413-36.713 54.912-78.393 75.195-122.008 1.594-3.428 2.612-7.281-1.126-9.915-3.916-2.76-6.92-.07-9.45 2.742-5.336 5.932-10.261 12.26-15.868 17.916-18.963 19.127-37.799 38.407-57.444 56.816-6.646 6.227-15.021 11.46-23.541 14.66-18.986 7.128-39.198 1.643-55.352-16.858-15.68-17.958-35.084-30.59-58.542-35.9-10.966-2.481-22.293-4.384-33.486-.968-2.164.66-5.01 2.975-5.282 4.854-.273 1.885 1.855 4.714 3.692 6.165 2.563 2.023 5.845 3.125 8.797 4.665 17.334 9.041 32.67 20.503 44.198 36.565 6.758 9.416 10.864 19.66 10.683 31.504-.247 16.193-7.37 29.574-17.235 41.573-6.537 7.95-13.983 15.186-21.36 22.397-4.69 4.586-9.616 9.133-15.101 12.665-16.784 10.806-33.856 21.166-50.893 31.573-3.84 2.345-4.89 5.136-2.673 9.448 1.061.285 2.3.853 3.568.926 31.642 1.815 62.369-2.613 92.046-13.821 36.616-13.829 68.802-34.7 98.39-62.317m-48.874-190.895c-1.692 2.044-3.532 3.986-5.053 6.15-14.05 19.984-12.555 48.948 3.38 66.62 17.566 19.483 45.713 24.43 68.168 11.4 21.733-12.611 31.098-36.948 23.6-63.157-11.315-39.544-60.499-50.313-90.095-21.013z"/><path fill="#182856" d="M1403.72 790.397c2.274 6.667 4.348 12.577 6.702 19.285-3.332.262-5.832.628-8.333.63-50 .033-100-.056-149.999.137-5.556.022-8.954-1.436-12.007-6.394-24.27-39.428-58.167-67.644-100.294-86.72-18.812-8.517-38.526-12.264-58.575-15.012-72.877-9.99-134.307 13.907-185.631 64.925-30.734 30.55-49.368 67.99-57.691 110.648-13.222 67.774 3.74 127.746 46.336 181.077 24.673 30.891 56.495 52.129 92.916 66.825 1.231.497 2.518.897 3.814 1.174.582.125 1.253-.165 2.569-.378v-68.184l52.543-22.476v103.132l10.158.67c.658-.59.922-.793 1.143-1.035.219-.24.49-.493.57-.786.174-.639.337-1.307.337-1.963.016-35.99.014-71.978.014-107.36l53.003-41.283v146.862l13.034-3.075v-11.04c0-46 .116-92-.126-138-.036-6.83 2.235-11.602 6.673-16.76 11.693-13.585 22.62-27.842 33.574-42.045 4.655-6.037 8.618-12.607 13.074-19.199h261.05c.37 4.22 1.249 8.378 1 12.467-.868 14.22-1.938 28.434-3.273 42.618-3.648 38.751-14.84 75.524-30.25 111.039-14.929 34.406-34.92 65.705-59.557 94.043-27.991 32.197-60.672 58.62-97.726 79.636-37.928 21.513-78.38 36.31-121.414 43.348-26.242 4.292-52.722 5.812-79.423 4.643-36.437-1.595-71.969-7.629-106.25-19.924-51.333-18.411-97.258-45.768-136.94-83.563-54.345-51.759-89.255-114.348-105.796-187.294-4.256-18.768-6.977-37.843-7.328-57.186-.168-9.283-1.383-18.568-1.198-27.833 1.022-51.01 10.575-100.23 31.729-146.913 17.863-39.42 41.352-74.98 71.409-106.295 54.601-56.886 120.372-93.3 197.565-109.07 18.556-3.791 37.356-5.329 56.312-6.31 43.234-2.238 85.386 2.891 126.648 15.744 47.252 14.72 90.051 37.73 128.04 69.482 50.884 42.529 87.367 95.34 111.599 157.713m-235.41 272.61v42.804c25.093-11.517 69.926-58.177 72.673-73.383h-72.673v30.58z"/><path fill="#1B2B58" d="M892.301 1439.675c-3.913-4.003-7.859-7.974-11.732-12.016-10.021-10.457-15.058-23.397-17.891-37.245-3.568-17.442-2.799-34.981-.078-52.472.138-.887.985-1.664 1.809-2.986 12.512 3.873 23.227 10.894 33.572 18.588 18.758 13.95 27.438 33.868 31.804 55.835 2.637 13.267 3.552 26.876 5.408 41.672 5.15 1.085 11.571 2.292 17.92 3.801 31.08 7.39 61.462 17.021 90.621 30.083 6.846 3.067 12.16 2.55 18.685-.286 34.825-15.134 70.955-26.214 109.556-33.784.107-4.221.314-8.73.32-13.239.02-18.894 4.277-36.986 11.81-54.102 11.041-25.082 32.299-38.74 57-48.878.874 1.887 1.95 3.267 2.139 4.76 2.465 19.485 2.806 38.946-1.933 58.17-4.06 16.472-13.823 29.277-26.65 39.975-1.241 1.036-2.468 2.09-3.389 3.808 17.368-3.702 33.805-9.893 50.025-16.805-1.203-10.32-3.05-20.094-3.35-29.915-.804-26.389 2.234-51.893 20.927-72.744 8.67-9.671 18.38-18.072 31.366-25.241 2.812 12.284 6.118 23.413 7.723 34.781 1.278 9.057.7 18.41.557 27.625-.263 16.866-8.098 30.534-19.52 43.948-1.231 4.457.567 3.022 2.013 2.336 14.625-8.46 29.25-16.92 43.241-25.015-3.357-13.282-6.978-24.998-9.218-36.972-6.465-34.548 2.381-64.533 28.117-89.03 1.837-1.747 3.962-3.191 6.946-5.568 17.266 33.97 29.61 67.116 9.156 103.956 14.772-9.31 27.04-20.586 39.45-31.913-3.951-7.863-8.009-15.081-11.29-22.637-6.93-15.958-11.783-32.492-11.073-50.141.878-21.835 10.328-40.085 24.535-57.943 22.873 29.796 40.014 59.777 25.776 98.512 7.007-1.836 22.458-19 35.296-38.595-10.28-11.124-19.13-23.495-25.531-37.47-5.85-12.77-10.895-25.927-9.953-40.203.876-13.28 3.846-26.265 9.758-38.373 1.449-2.969 3.066-5.855 5.159-9.828 28.853 25.799 50.805 53.608 41.13 95.834 11.61-15.016 20.566-31.335 28.246-45.923-9.157-10.116-17.885-19.154-25.923-28.769-14.24-17.034-23.98-36.151-22.35-59.064.791-11.141 3.417-22.153 5.279-33.634 33.968 17.18 61.598 46.013 57.162 89.071 9.477-17.929 15.52-37.15 21.345-56.335-58.12-32.865-68.91-67.957-61.208-107.02 30.97 8.598 66.098 32.247 68.173 75.986 6.92-19.613 9.43-40.12 12.378-60.45-63.484-22.24-77.836-52.305-78.78-93.963 18.805 2.61 35.63 9.273 51.313 19.523 16.454 10.753 22.862 27.68 28.861 45.18 2.986-22.518 2.495-44.85.213-67.015-59.685-8.604-85.203-35.336-91.068-77.337 36.6 1.715 69.71 8.692 86.246 47.746 2.358-9.263-4.277-48.439-10.139-64.12-14.937-1.971-29.453-3.157-43.663-5.917-28.389-5.513-45.609-24.31-56.51-49.931-.487-1.144-.61-2.442-1.165-4.758 17.28-2.127 33.916-2.758 50.683.687 17.11 3.515 28.878 14.861 40.748 28.984-1.088-12.563-12.184-43.242-21.614-61.365-2.991.496-6.212.97-9.409 1.572-17.162 3.234-34.262 2.87-51.263-1.026-17.122-3.924-29.339-14.957-39.972-28.118-2.686-3.325-4.95-6.991-7.894-11.196 2.572-1.228 4.43-2.43 6.467-3.037 18.012-5.376 36.13-8.273 54.967-4.048 11.934 2.676 20.654 10.263 30.885 18.212 2.056 1.132 3.09 1.356 4.124 1.58l-1.769-4.29c-9.196-18.745-19.669-36.726-31.458-53.846-7.513 2.53-14.368 4.913-21.272 7.148-14.723 4.767-29.968 5.188-45.058 3.591-14.633-1.548-26.658-9.588-37.554-19.108-3.441-3.007-6.48-6.473-9.764-9.792 29.982-22.365 64.484-22.583 97.452-.39 1.485.645 2.04.633 2.597.622l-.797-2.353c-13.537-19.39-29.18-36.93-46.466-53.869-13.287 9.381-27.437 15.653-42.647 19.795-26.808 7.3-49.511-.49-70.625-17.78 13.183-11.753 27.508-20.128 43.805-24.292 16.22-4.144 32.079-.336 48.48 6.593-4.578-9.116-37.839-36.714-52.21-44.355-40.53 37.756-76.362 40.265-107.87 19.662 11.024-13.754 24.257-24.594 40.455-31.458 16.552-7.014 33.253-3.293 50.062.378-19.131-14.705-40.202-25.616-61.273-36.563-7.14 7.7-13.485 15.37-20.692 22.118-10.747 10.062-22.61 18.416-37.564 21.493-15.11 3.109-29.539.795-43.977-3.7 12.246-32.584 47.523-52.538 81.267-45.157 3.992.733 6.498 1.1 7.63 1.266 3.946-1.352-2.692-5.098 2.897-5.35 19.202 9.49 38.403 18.979 58.6 29.14 1.691.795 2.388.917 3.36 1.515.642.284 1.01.093 1.376-.099-.144-.221-.333-.65-.423-.63-.466.103-.907.321-.852-.021-.097-1.25-.7-1.978-1.303-2.707-2.253-3.267-4.585-6.482-6.745-9.809-8.462-13.033-11.428-27.08-9.177-42.62 1.768-12.208 4.838-23.822 9.954-35.616 7.13 2.756 11.243 8.01 15.916 12.509 17.727 17.062 22.45 38.46 19.934 61.916-1.12 10.449-3.55 20.757-5.418 31.311 15.757 11.858 31.91 24.014 48.968 36.99 1.689.877 2.472.932 3.256.987l-.864-3.522c-1.747-4.308-3.53-8.602-5.233-12.927-4.303-10.93-3.767-22.066-1.37-33.285 2.7-12.639 10.13-28.699 18.267-39.35 29.962 24.668 34.57 63.924 11.597 109.244l44.884 46.553c-3.676-16.666-5.692-31.637.21-46.528 5.845-14.745 14.602-27.472 25.439-38.957 25.251 27.411 26.781 65.631-5.897 111.23l34.163 54.395c1.008-10.63 1.237-21.339 3.225-31.71 2.039-10.638 8.564-19.39 15.56-27.52 7.123-8.28 14.596-16.227 24.22-21.833 20.726 37.736 10.486 75.594-27.575 111.152l25.22 61.61c.957-4.257 1.968-6.712 1.988-9.176.165-19.767 9.658-34.675 23.92-47.34 9.244-8.208 19.27-15.077 31.257-20.581 3.67 10.83 4.755 21.427 4.287 32.235-1.413 32.609-21.997 52.874-45.847 71.01-1.836 1.397-3.77 2.667-5.63 4.032-.237.174-.31.57-.459.861l14.242 63.294c4.34-17.275 10.257-32.837 24.223-43.748 13.508-10.552 28.388-18.174 46.239-22.722 1.882 24.66-.91 46.967-17.881 65.481-12.29 13.407-26.737 23.876-43.501 31.071-1.506.646-2.876 1.609-4.677 2.634l2.56 60.078c15.079-36.151 46.464-45.205 82.048-50.703-2.374 24.103-8.445 45.032-26.473 60.37-16.199 13.783-35.097 22.633-56.705 27.145-2.769 18.44-5.558 37.016-8.162 56.028.05.92-.087 1.406-.224 1.892l1.17-1.17c.76-.549 1.791-.932 2.24-1.67 11.15-18.365 28.464-27.298 48.699-31.365 12.673-2.547 25.544-3.487 39.393-2.097-7.437 26.222-19.498 48.139-45.323 59.932-17.38 7.938-35.67 12.082-54.595 13.33-5.063 16.147-10.01 31.928-15.442 48.93-.483 2.355-.483 3.488-.483 5.437l2.608-3.48c1.606-1.176 3.402-2.162 4.787-3.557 9.505-9.574 21.257-14.769 34.325-16.57 18.145-2.499 36.22-1.938 55.413 3.735-3.645 6.151-6.657 11.539-9.955 16.745-16.035 25.31-39.865 37.11-69.042 38.923-11.13.692-22.339.113-33.906.113-8.24 15.23-16.565 30.618-25.427 46.966-.505 1.517-.474 2.075-.443 2.633l2.158-.958c13.767-9.377 28.703-15.39 45.625-14.618 17.041.777 33.53 4.378 49.186 11.347 1.148.512 2.12 1.419 3.742 2.53-18.159 25.408-40.676 41.812-72.88 42.198-17.085.205-33.756-1.829-50.224-6.874-11.033 13.644-21.85 27.02-33.44 41.466-1.51 4.42.052 3.833 1.954 2.666 33.514-16.57 67.397-5.213 98.54 15.476-.23.797-.205 1.962-.774 2.51-12.135 11.68-25.806 21.136-41.98 26.112-14.263 4.389-29.143 4.06-43.454.847-15.1-3.391-29.76-8.737-45.346-13.451l-40.123 36.19.483 1.356c3.044-.58 6.152-.934 9.12-1.78 12.493-3.566 24.883-3.18 37.23.624 20.799 6.404 38.038 18.451 53.755 33.27-36.557 29.238-79.99 30.485-133.537-8.026-8.864 5.709-17.966 11.597-27.094 17.445-37.448 23.993-77.15 43.313-119.907 55.69-19.725 5.71-40.066 9.265-60.065 14.056-27.185 6.513-53.642 15.24-80.432 27.309 28.064 16.102 54.803 32.604 77.328 56.37l-20.939 18.624c-23.893-25.786-51.792-45.351-82.686-62.015-30.7 15.895-58.437 36.074-83.426 61.59l-20.649-18.157c22.089-23.565 48.501-39.877 76.823-55.981-2.828-1.537-4.576-2.675-6.465-3.485-33.416-14.344-68.166-24.022-103.891-30.735-31.837-5.982-61.978-17.371-91.224-31.192-26.832-12.68-52.547-27.276-76.904-44.25-2.447-1.704-5.03-3.212-7.696-4.903-9.505 5.529-18.662 11.494-28.373 16.35-13.725 6.864-28.148 11.962-43.706 12.788-22.957 1.22-42.856-7.039-62.571-20.383 13.246-14.189 28.413-24.283 45.609-31.507 17.513-7.357 35.405-7.742 53.596-1.239l.892-2.271-39.704-36.406c-11.76 4.103-23.387 8.886-35.42 12.185-17.18 4.71-34.838 6.002-52.216 1.187-17.016-4.715-31.006-14.75-43.56-27.034 18.755-17.354 63.873-35.138 96.878-17.72 2.457.858 3.636 1.04 4.814 1.221l-2.216-3.632-31.83-41.22c-16.664 5.138-33.636 7.046-51 6.946-32.385-.185-54.407-17.355-73.093-42.63 11.937-6.33 23.944-9.783 36.28-11.445 9.4-1.266 19.045-1.205 28.564-.995 11.706.26 21.651 5.706 31.987 12.586 1.234.778 1.625 1.015 2.46 1.541 1.09.654 1.804.906 2.518 1.158-.454-.948-.909-1.895-1.367-3.375-.437-1.071-.87-1.612-1.303-2.152l-23.65-44.777c-2.535 0-5.862-.503-8.984.086-14.736 2.78-29.091-.267-43.304-3.102-29.724-5.929-47.533-25.96-60.52-53.308 6.68-1.33 12.663-3.344 18.71-3.555 12.259-.427 24.654-.816 36.806.503 15.359 1.667 28.155 9.402 39.4 21.564 1.269.773 1.739.824 2.209.874l-.37-2.432-15.3-49.524c-13.834-3.064-27.522-5.492-40.865-9.171-31.985-8.82-49.697-31.546-58.792-62.2-.265-.892-.033-1.932-.033-3.694 35.104-.635 68.15 2.581 90.36 35.279l-7.617-55.868c-5.696-1.814-11.353-3.623-17.015-5.417-14.452-4.58-27.376-12.059-39.136-21.44-11.853-9.455-18.744-22.336-22.92-36.637-2.189-7.498-5.06-15.045-3.49-24.471 34.12 5.073 64.821 14.027 80.757 49.127l3.064-58.856c-15.604-7.04-29.57-15.688-42.061-26.996-16.042-14.522-23.767-32.36-24.431-53.62-.175-5.619-.026-11.247-.026-18.236 18.01 4.043 32.77 12.066 46.528 22.59 14.273 10.918 19.428 26.927 24.278 43.932l13.8-62.907c-10.146-9.138-19.968-17.09-28.744-26.063-22.71-23.221-28.527-50.373-18.431-82.695 31.76 16.845 57.808 37.073 56.706 78.1l25.207-61.9c-4.739-5.33-10.386-10.58-14.678-16.77-6.417-9.253-13.018-18.667-17.518-28.903-9.887-22.485-5.758-44.561 4.425-67.219 27.342 21.002 47.7 44.12 41.711 81.582.12 1.263.27 1.87.42 2.477L574 666c4.6-7.17 9.198-14.341 13.799-21.51 6.99-10.896 13.982-21.79 21.294-33.184-25.148-35.188-36.527-71.77-7.288-112.248 22.356 23.779 37.272 49.074 29.111 83.709L673.4 539.09c-18.652-38.654-24.14-76.312 11.798-110.514 17.67 28.047 28.313 56.103 10.071 88.696-.592 1.808-.655 2.671-.718 3.534l2.534-1.89 51.324-38.17c-1.82-9.023-4.385-18.28-5.437-27.705-1.897-16.991-1.361-33.914 7.395-49.346 6.61-11.649 15.58-21.176 26.926-28.565 14.132 25.216 18.946 61.537-4.928 87.369-1.05 1.639-1.297 2.336-1.544 3.032l3.575-1.115c11.468-5.875 22.792-12.054 34.441-17.545 12.855-6.06 26.007-11.488 40.292-16.964 1.784.817 2.304 1.408 2.825 2l-13.067 6.435c19.029-.622 37.711-2.304 54.5 9.129 12.616 8.592 23.817 20.997 31.8 36.274-30.4 13.85-65.79 8.752-101.669-38.466-19.736 9.022-38.483 20.175-57.968 32.468-2.637 1.715-4.254 2.813-5.906 4.24-.054.052-.074-.226.61-.227 3.01-.277 5.314-.831 7.618-1.386 4.901-.752 9.797-1.547 14.705-2.25 14.386-2.057 27.614 1.05 39.953 8.673 11.374 7.027 21.585 15.275 29.686 26.069-33.33 21.34-67.769 16.828-108.51-19.85-19.161 12.552-36.493 27.788-54.697 43.806-.742 1.405-.733 1.873-.724 2.34l1.871-.992c3.097-1.072 6.27-1.964 9.278-3.246 19.576-8.342 38.967-7.34 57.696 2.09 9.394 4.731 18.02 10.988 27.233 16.703-29.039 28.359-66.426 29.8-112.941.009-16.826 14.774-30.975 32.178-45.31 50.883-1.17 1.22-1.429 1.709-1.788 2.792-.273.965-.189 1.468-.105 1.971.646-.401 1.292-.803 2.47-1.21 1.075-.44 1.617-.873 2.158-1.306 4.307-2.498 8.623-4.981 12.92-7.497 18.843-11.03 38.332-8.872 57.75-2.267 8.377 2.849 17.168 5.327 24.445 12.083-17.31 18.58-36.471 31.148-63.352 29.55-17.25-1.026-33.418-4.765-50.027-11.78-11.833 16.762-21.96 34.521-31.745 54.135-.844 2.42-1.024 3.599-1.204 4.777l3.625-2.234c.281-.179.605-.314.837-.543 21.338-20.943 47.01-22.432 74.288-16.458 4.535.994 8.972 2.448 13.428 3.78.907.27 1.692.95 3.477 1.99-11.31 18.826-25.387 33.903-47.288 39.446-17.885 4.526-36.009 4.908-54.102.682-1.617-.378-3.273-.606-4.922-.82-.619-.08-1.269.08-2.654.188-8.95 19.528-16.442 39.931-21.994 61.36 11.597-13.107 23.452-25.3 41.327-29.16 16.751-3.616 33.405-3.136 50.374-.876-11.443 40.89-44.652 60.601-100.371 59.015-5.654 20.533-9.975 41.502-10.891 63.58 9.688-17.581 22.176-31.373 41.542-37.969 12.824-4.368 33.114-8.01 44.785-6.863-3.576 33.307-23.668 67.336-90.72 76.742-2.08 22.237-3.574 44.59.258 69.19 5.82-19.75 12.514-36.741 29.125-47.73 15.53-10.275 32.394-16.372 51.098-19.445.169 35.769-14.182 62.53-45.527 79.277-10.2 5.45-20.982 9.814-31.962 14.89-1.358 8.637 5.004 44.614 11.436 60.429 2.124-20.468 7.694-37.805 22.251-50.733 13.238-11.757 28.214-20.58 46.148-26.516 3.317 28.353 1.331 53.985-18.898 75.23-10.86 11.405-22.776 21.388-36.712 28.85-2.004 1.072-3.889 2.367-6.87 4.2l20.182 55.945 2.744-.337c0-3.356.225-6.73-.036-10.065-1.813-23.243 8.876-41.217 24.75-56.452 7.608-7.302 16.76-13.004 25.29-19.327 1.224-.907 2.884-1.227 4.348-1.82 15.514 40.102 8.41 77.268-42.125 118.254 7.65 15.982 16.835 31.256 27.305 46.986 1.213 1.231 1.722 1.685 2.232 2.138l-.239-3.627c-6.908-31.825 5.599-57.146 26.76-79.499 4.248-4.487 8.872-8.618 13.51-13.094 22.934 36.307 22.443 77.036-19.666 125.986 9.79 13.907 20.935 26.916 33.538 40.12 1.274.776 1.746.828 2.218.88l-.379-2.44c-1.835-8.743-4.772-17.422-5.28-26.241-1.114-19.342 6.692-36.364 16.503-52.443 4.114-6.743 9.088-12.962 14.366-20.397 19.22 24.83 30.155 50.428 22.403 81.273-3.825 15.219-8.883 29.942-17.144 43.41-1.014 1.652-1.864 3.406-3.46 6.347 12.552 10.558 24.948 20.986 38.38 32.15 1.583.66 2.13.585 2.678.51l-.765-2.425c-21.496-33.17-6.146-80.096 9.827-101.24 29.157 23.693 40.86 54.055 34.404 90.988-2.22 12.7-6.091 25.112-9.44 38.588 13.187 9.034 27.442 18.149 44.146 23.91-1.047-1.796-1.857-3.792-3.178-5.356-14.766-17.484-18.113-38.287-15.958-59.962 1.235-12.431 5.212-24.594 8.052-36.855.282-1.22 1.246-2.28 2.269-4.07 26.127 16.804 45.736 37.38 49.504 69.806 2.205 18.98 1.449 37.665-2.716 57.256 15.074 6.568 30.13 12.387 47.032 17.07 2.138.373 3.058.264 3.978.156l-2.453-1.807M1415 538l.801-1.198c-.6.066-1.2.132-.801 1.198m-609 867.007 1.187.796c-.065-.595-.13-1.19-1.187-.796M628.247 584.94l1.249.476c-.13-.451-.26-.903-1.249-.476m817.842 706.043 1.13.786c-.06-.585-.12-1.17-1.13-.786m-739.92 71.853 1.394.011c-.23-.21-.46-.422-1.394-.011m855.912-589.842 1.257.457c-.138-.454-.277-.909-1.257-.457z"/><path fill="#182856" d="M4113.674 1117.969v25.196h-76.5l-9.582-58.863c-4.076 4.73-7.054 8.12-9.959 11.57-30.32 36.017-69.463 54.227-115.94 58.605-27.44 2.585-54.356.669-80.896-6.267-34.908-9.122-65.05-26.98-90.349-52.469-30.717-30.949-50.313-68.293-60.295-110.664-6.502-27.6-8.887-55.562-7.982-83.955.872-27.356 4.015-54.316 12.082-80.443 22.287-72.183 67.773-123.255 139.095-149.888 20.897-7.804 42.779-12.098 65.169-13.111 12.269-.556 24.578-1.689 36.816-1.206 32.755 1.292 64.681 6.923 94.387 21.642 52.525 26.027 84.46 68.334 98.157 124.912.922 3.812 1.593 7.684 2.51 12.155h-115.962c-2.885-5.424-5.795-11.345-9.102-17.034-13.363-22.983-33.649-36.484-59.37-41.532-28.355-5.565-55.7-2.643-80.442 13.48-21.3 13.88-35.543 33.707-45.327 56.859-12.825 30.35-15.777 62.29-14.207 94.774 1.278 26.431 6.307 52.085 19.01 75.68 16.482 30.612 40.436 52.114 75.674 57.457 31.423 4.765 61.84 1.363 88.348-18.467 19.764-14.785 31.423-34.523 35.377-59.827H3900.34V884.92h213.334v233.048zM2383.672 915.728c-1.385 41.124-7.749 80.304-25.336 116.808-25.435 52.793-65.715 89.59-121.142 109.214-34.27 12.134-69.736 15.567-105.928 14.07-31.486-1.303-61.948-6.848-90.968-19.346-49.922-21.501-85.47-57.722-107.914-106.851-15.098-33.048-21.207-68.085-22.975-104.326-1.861-38.16.923-75.654 12.38-112.048 24.11-76.596 74.554-126.34 152.737-147.091 29.572-7.85 59.777-9.11 90.006-7.636 37.523 1.83 73.555 10.307 106.598 29.082 47.167 26.802 78.8 66.484 96.662 117.372 8.622 24.563 13.648 49.89 14.56 75.973.395 11.274.878 22.545 1.32 34.78m-307.314 116.997c5.834 3.808 11.37 8.21 17.556 11.317 21.725 10.908 44.761 13.352 68.76 10.357 29.81-3.72 53.316-17.522 70.352-42.212 10.731-15.553 17.534-32.882 21.01-51.333 4.488-23.82 6.37-47.78 4.548-72.173-1.723-23.07-5.29-45.495-14.572-66.738-12.634-28.912-33.073-49.725-63.935-58.598-16.668-4.792-33.724-6.107-51.185-3.781-31.258 4.163-55.736 18.65-72.593 45.421-17.39 27.618-22.027 58.756-23.85 90.447-1.126 19.597.365 39.186 3.818 58.528 5.311 29.75 16.009 56.896 40.091 78.765zM5045.153 825.062c1.905-10.614 3.524-20.409 5.236-30.766h118.778l41.773 230.964 1.995.094 48.345-231.23h117.21l-103.021 348.894h-118.56l-45.044-222.495-1.895-.052-47.962 222.868h-116.11l-103.445-349.077h117.52l48.14 231.505 1.782-.106c11.657-66.593 23.315-133.187 35.258-200.6zM2725.62 796.086c45.05 22.707 69.791 60.194 82.22 106.947 6.18 23.243 8.46 47.08 7.703 71.03-1.24 39.295-8.563 77.182-29.505 111.327-16.023 26.123-36.499 47.967-65.625 58.857-50.168 18.758-97.233 13.266-138.863-22.424-5.889-5.048-10.443-11.653-16.778-18.86v178.642h-113.8V794.192h114.839v42.14c6.508-7.129 11.63-13.083 17.115-18.684 18.66-19.055 41.469-29.014 67.915-32.151 25.758-3.056 50.216.874 74.78 10.59m-29.308 180.745c-.01-19.69-1.63-39.124-8.451-57.841-9.755-26.77-31.675-42.72-58.913-42.652-25.524.064-46.042 13.91-55.82 37.722-11.086 26.997-11.332 55.184-7.868 83.423 1.269 10.344 4.872 20.708 9.087 30.329 12.765 29.14 44.53 41.438 74.03 32.852 22.722-6.614 35.093-23.447 41.433-44.785 3.55-11.948 4.32-24.723 6.502-39.048zM5770.333 1090v53.19h-114.072V670.898h113.465v163.514l1.76 1.07c1.835-1.91 3.834-3.69 5.482-5.75 18.654-23.31 42.636-37.847 72.037-42.833 29.696-5.036 59-3.806 86.734 9.285 28.364 13.388 43.764 37.174 50.164 66.91 2.772 12.882 4.176 26.3 4.241 39.484.384 77.658.192 155.318.174 232.978 0 2.298-.224 4.597-.375 7.498h-113.881c-.127-3.338-.376-6.852-.377-10.366-.025-54.329.575-108.667-.316-162.981-.347-21.12-.93-42.328-4.674-63.434-4.927-27.784-25.178-34.539-48.208-33.703-4.248.154-8.504 1.337-12.669 2.39-21.115 5.333-30.735 21.14-35.224 40.572-2.52 10.906-3.97 22.294-4.076 33.482-.439 46.659-.185 93.324-.185 140.986zM4712.53 793.39c50.74 18.552 83.285 53.542 99.326 103.975 8.651 27.199 11.078 55.372 9.638 83.69-1.456 28.64-6.453 56.69-19.585 82.7-21.449 42.483-55.103 70.362-100.98 82.606-45.911 12.253-92.129 12.46-137.537-2.264-55.747-18.076-89.977-56.976-105.048-113.14-4.4-16.396-6.051-33.159-6.934-50.172-1.425-27.426.701-54.314 8.488-80.592 17.678-59.66 57.267-97.363 117.311-112.043 44.96-10.991 90.21-9.79 135.321 5.24m-137.117 223.908c2.395 5.832 4.287 11.936 7.267 17.454 18.186 33.677 61.547 42.366 91.563 18.462 12.189-9.707 19.053-22.952 23.24-37.52 7.366-25.618 7.923-51.766 4.004-77.967-2.072-13.853-6.25-27.132-13.846-39.188-15.058-23.904-38.014-31.467-63.558-27.347-22.888 3.692-36.947 18.39-45.68 38.9-7.82 18.361-9.587 37.974-9.828 57.526-.199 16.205 1.64 32.454 6.838 49.68zM3204.1 926.079c3.842 23.498 5.108 46.231 3.283 69.997h-233.738c-4.301 27.122 9.158 62.581 37.597 71.155 16.006 4.825 32.124 4.545 48.051-.67 16.777-5.495 26.814-17.73 32.626-33.905h110.121c-.617 2.778-.98 5.298-1.737 7.693-17.697 55.968-55.446 90.796-111.79 106.08-22.976 6.233-46.43 8.303-70.054 7.12-34.713-1.737-67.588-9.95-96.287-30.794-35.46-25.754-55.723-61.177-63.593-103.577-7.48-40.297-7.106-80.748 5.239-120.197 19.325-61.756 60.518-100.447 124.403-113.08 35.987-7.115 71.987-5.62 107.13 5.851 46.58 15.205 78.296 46.595 96.589 91.459 5.466 13.404 8.07 27.976 12.16 42.868m-139.04-58.472c-22.993-10.606-45.953-11.375-67.176 3.397-20.01 13.927-26.351 35.271-28.508 58.763h128.345c-1.836-25.427-8.392-47.575-32.66-62.16zM3380.336 1034v109.192h-114.078v-349.08h111.55v43.842c2.76-2.837 4.334-4.139 5.528-5.727 24.452-32.516 57.385-46.962 97.637-46.675 17.363.123 34.48.934 51.262 5.934 27.333 8.144 46.428 25.082 56.612 51.855 7.041 18.51 10.523 37.883 10.638 57.467.456 77.994.192 155.992.173 233.99-.001 2.59-.228 5.183-.375 8.31h-114.956v-11.13c0-61.665.235-123.33-.184-184.992-.091-13.523-1.937-27.118-3.98-40.528-4.173-27.402-21.984-34.399-47.84-33.747-6.441.162-13.021 2.42-19.181 4.682-16.744 6.151-24.387 20.179-28.267 36.174a156.59 156.59 0 0 0-4.342 33.44c-.59 28.654-.197 57.327-.197 86.993zM5546.333 767.968v25.417h57.316v70.18h-56.883c-.176 3.975-.415 6.89-.416 9.807-.023 49.983-.232 99.967.177 149.946.076 9.145 2.138 18.4 4.278 27.367 2.282 9.563 9.166 15.717 18.698 17.321 10.748 1.809 21.729 2.229 33.428 3.33v71.96c-13.986 3.703-28.38 5.45-42.839 6.558-20.162 1.546-40.33 2.047-60.347-1.827-16.676-3.227-31.69-9.496-43.592-22.275-8.737-9.382-12.865-20.832-16-32.777-5.846-22.267-8.254-45.05-8.393-67.983-.302-49.647-.093-99.298-.093-148.947v-11.917h-46.607V793.77h46.21V696.41h115.063v71.558zM4266 793.664h37.731v55.78c4.978-1.617 5.66-5.542 7.385-8.264 10.864-17.14 24.14-31.83 42.37-41.278 20.413-10.58 42.172-15.16 65.684-13.971v112.041h-9.78c-15.924 0-31.922-1.892-47.676 2.173-27.908 7.2-45.377 24.33-49.377 53.31-2.126 15.402-3.648 31.005-3.827 46.536-.505 43.973-.176 87.956-.176 131.935v11.242h-114.027V793.664H4266z"/><path fill="#F9BC05" d="M1088.5 970.515c-29.004 27.21-61.19 48.081-97.806 61.91-29.677 11.208-60.404 15.636-92.046 13.821-1.268-.073-2.507-.64-3.568-.926-2.218-4.312-1.166-7.103 2.673-9.448 17.037-10.407 34.11-20.767 50.893-31.573 5.485-3.532 10.41-8.08 15.101-12.665 7.377-7.21 14.823-14.447 21.36-22.397 9.865-12 16.988-25.38 17.235-41.573.18-11.844-3.925-22.088-10.683-31.504-11.528-16.062-26.864-27.524-44.198-36.565-2.952-1.54-6.234-2.642-8.797-4.665-1.837-1.451-3.965-4.28-3.692-6.165.272-1.879 3.118-4.193 5.282-4.854 11.193-3.416 22.52-1.513 33.486.969 23.458 5.309 42.862 17.941 58.542 35.9 16.154 18.5 36.366 23.985 55.352 16.857 8.52-3.2 16.895-8.433 23.54-14.66 19.646-18.41 38.482-37.689 57.445-56.816 5.607-5.657 10.532-11.984 15.868-17.916 2.53-2.813 5.534-5.502 9.45-2.742 3.738 2.634 2.72 6.487 1.126 9.915-20.283 43.615-43.782 85.295-75.195 122.008-9.72 11.358-20.494 21.814-31.368 33.089z"/><path fill="#FEF9E9" d="M2896.01 1451.985c-80.613.002-161.225-.075-241.837.148-6.778.02-12.15-2.205-17.744-5.991v-42.833c10.092-4.153 19.991-7.366 30.88-7.352 80.946.098 161.892.054 243.623.797-.175 1.518-1.032 2.753-2.114 2.998-11.899 2.695-12.766 3.65-12.808 15.649-.042 12.194-.004 24.39 0 36.584z"/><path fill="#FCD972" d="M4592.01 1451.925c-1.989.107-3.976.307-5.964.306-83.388-.039-166.776-.096-251.106-1.164-.908-18.809-.876-36.605-.844-54.401 2.65-.147 5.298-.421 7.946-.423 81.399-.048 162.797-.07 244.195-.087 1.327 0 2.655.1 4.887 1.221.897 18.895.892 36.722.885 54.548z"/><path fill="#FDEAB1" d="M3458.086 1396.3c46.157-.076 92.315-.185 138.472-.219 30.55-.022 61.1.062 92.56 1.11.905 18.928.9 36.844.894 54.76-76.71.021-153.419.043-231.069-.895-.912-18.89-.885-36.823-.857-54.755z"/><path fill="#FCDE83" d="M4333.167 1396.47c.897 17.992.865 35.788.84 54.514-6.962 1.024-13.93 1.204-20.9 1.202-69.074-.025-138.149-.08-208.164-1.126-.91-18.82-.88-36.642-.85-54.464 1.322-.127 2.643-.363 3.964-.363 74.727.002 149.454.023 225.11.237z"/><path fill="#FEEFC2" d="M3457.144 1396.201c.914 18.032.887 35.964.863 54.83-72.039.948-144.081.962-217.065.026-.92-18.921-.902-36.892-.883-54.863 72.048-.03 144.096-.061 217.085.007z"/><path fill="#FCE293" d="M4103.162 1396.416c.901 18.002.87 35.824.847 54.575-28.872 1.003-57.751 1.126-86.63 1.138-41.165.016-82.33-.05-124.436-1.067-.913-18.841-.887-36.697-.86-54.552 1.322-.11 2.644-.318 3.967-.317 68.726.003 137.453.024 207.112.223z"/><path fill="#F9BD0B" d="M5794.06 1396.77c3.318-.144 6.637-.413 9.955-.415 57.258-.045 114.516-.157 171.774.06 6.463.024 13.236 1.036 19.311 3.17 11.177 3.924 17.997 16.322 16.572 27.91-1.499 12.18-11.129 22.373-23.104 24.246-2.943.46-5.965.576-8.95.575-61.253-.014-122.506-.068-184.688-1.197-.91-18.838-.89-36.593-.87-54.349z"/><path fill="#FDE6A1" d="M3891.147 1396.353c.909 18.012.883 35.868.86 54.654-66.705.964-133.414.996-201.06.986-.93-17.958-.924-35.874-.893-54.684 18.609-.995 37.192-1.175 55.775-1.182 48.128-.017 96.256.041 145.318.226z"/><path fill="#FAC11A" d="M5793.139 1396.57c.902 17.956.882 35.711.865 54.396-1.975 1.079-3.955 1.358-5.934 1.357-60.737-.027-121.475-.081-183.141-1.214-.913-18.831-.898-36.58-.883-54.33 1.648-.148 3.295-.428 4.943-.428 61.076-.01 122.152.006 184.15.219z"/><path fill="#FBD562" d="M4592.942 1452.022c-.926-17.923-.92-35.75-.896-54.455 1.335-1.021 2.652-1.288 3.97-1.288 60.064.008 120.129.04 181.102 1.143.903 18.876.897 36.677.892 54.478-7.956.117-15.913.335-23.87.334-53.421-.012-106.844-.071-161.198-.212z"/><path fill="#FBD153" d="M4778.941 1452.014c-.926-17.915-.92-35.716-.903-54.394 1.328-1.027 2.644-1.31 3.96-1.31 58.732.002 117.466.028 177.111 1.127.908 18.87.903 36.666.898 54.46-5.3.123-10.6.353-15.902.352-54.744-.02-109.488-.075-165.164-.235z"/><path fill="#FAC730" d="M5460.007 1451.893c-1.98.14-3.96.405-5.94.404-56.068-.025-112.135-.077-169.135-1.193-.912-18.824-.892-36.58-.873-54.335 1.647-.15 3.294-.433 4.941-.433 56.397-.004 112.795.02 170.107 1.12.91 18.866.905 36.652.9 54.437z"/><path fill="#FEF5DB" d="M2896.946 1451.989c-.94-12.199-.978-24.394-.936-36.588.042-11.998.91-12.954 12.808-15.649 1.082-.245 1.939-1.48 3.053-2.983a5984.433 5984.433 0 0 1 165.194.07c-5.417 7.941-5.503 16.51-5.153 25.397.389 9.902.095 19.83.098 29.748-58.043.003-116.085.006-175.064.005z"/><path fill="#FEF2D0" d="M3072.946 1451.994c-.94-9.927-.645-19.856-1.034-29.758-.35-8.887-.264-17.456 6.092-25.362 53.411-.777 106.79-.795 161.113-.746.923 18.037.904 36.008.889 54.913-55.372.944-110.748.954-167.06.953z"/><path fill="#F9BC04" d="M1040.717 778.706c29.09-28.793 78.273-18.024 89.587 21.52 7.499 26.209-1.866 50.546-23.599 63.157-22.455 13.03-50.602 8.083-68.168-11.4-15.935-17.672-17.43-46.636-3.38-66.62 1.521-2.164 3.36-4.106 5.56-6.657z"/><path fill="#FACB3C" d="M5283.136 1396.569c.904 17.956.884 35.711.868 54.396-7.283 1.062-14.568 1.31-21.855 1.31-46.094-.008-92.19-.07-139.216-1.176-.914-18.82-.895-36.578-.876-54.336 1.647-.155 3.293-.443 4.94-.443 51.738-.001 103.478.026 156.14.249z"/><path fill="#FBCE47" d="M5121.134 1396.563c.904 17.958.885 35.716.869 54.404-9.936 1.055-19.876 1.288-29.815 1.288-43.44.001-86.88-.065-131.25-.232-.926-17.92-.92-35.715-.91-54.389 1.654-1.034 3.3-1.325 4.947-1.325 51.746 0 103.49.03 156.16.254z"/><path fill="#FAC424" d="M5460.935 1452.04c-.923-17.932-.918-35.718-.909-54.386 7.949-1.036 15.892-1.32 23.837-1.324 39.446-.022 78.892.03 119.261.253.907 17.946.892 35.695.879 54.373-11.255 1.068-22.512 1.321-33.77 1.326-36.123.017-72.247-.058-109.298-.243z"/><path fill="#404E73" d="M1271.855 435.282c-5.15.806 1.487 4.552-2.46 5.904a294.122 294.122 0 0 1-6.827-1.075c2.523-3.223-.62-4.089-2.53-4.845-12.95-5.125-25.926-10.192-38.962-15.093-6.649-2.5-13.44-4.617-19.896-7.712 24.447 4.173 47.455 12.862 70.675 22.82zM852.706 431.85c-1.274-.535-1.794-1.126-2.844-2.005 14.652-5.578 29.82-10.91 45.03-16.119 2.743-.94 5.658-1.383 9.043-.522-16.825 6.196-33.65 12.392-51.229 18.646z"/><path fill="#FDEAB1" d="M767.464 480.055c-1.897.874-4.202 1.428-7.18 1.749-.672-.233-.606-.147-.606-.147 1.617-1.097 3.234-2.195 5.416-3.367 1.032.433 1.498.94 2.37 1.765z"/><path fill="#FBFBFC" d="M1168.31 1062.01v-29.582h72.674c-2.747 15.206-47.58 61.866-72.673 73.383v-43.801z"/><path fill="none" d="M1570.591 1126.534c-.237 1.367-.94 2.305-2.142 3.908 0-1.949 0-3.082.368-4.699.681-.201.995.081 1.774.79zM891.971 1440.045c1.148.232 1.965.834 2.783 1.437-.92.108-1.84.217-3.244.018-.485-.306.13-1.085.461-1.455zM773.932 463.978c-.728.81-1.92 1.182-3.112 1.553.247-.696.495-1.393 1.203-2.446.789-.086 1.117.184 1.91.893zM1408.317 515.77c.846.584 1.134 1.758 1.422 2.932-.784-.055-1.567-.11-2.68-.628.013-.881.357-1.298 1.258-2.305zM696.755 518.632c-.516.914-1.36 1.544-2.205 2.174.063-.863.126-1.726.699-2.802.51-.214 1.176.345 1.506.628zM580.745 682.995c-.695 1.373-1.903 2.118-3.112 2.862.18-1.178.36-2.357 1.013-4.102.845-.174 1.216.22 2.099 1.24zM1526.312 681.771c1.152.842 1.742 2.272 2.332 3.702-1.034-.224-2.068-.448-3.522-1.267-.07-1.013.278-1.43 1.19-2.435zM633.008 1291.253c1.371.698 2.11 1.908 2.848 3.12-1.178-.182-2.357-.364-4.102-1.02-.17-.845.225-1.216 1.254-2.1zM578.163 1213.838l1.363 2.843c-.714-.252-1.428-.504-2.118-1.46.024-.703.755-1.383.755-1.383zM602.814 1217.329c.438.934.518 2.143.597 3.352-.51-.453-1.02-.907-1.578-1.918-.05-.558.623-1.16.981-1.434zM1414.5 537.5c.1-.566.7-.632 1.301-.698-.267.4-.534.799-1.301.698zM1594.003 1038.002c-.433.333-.823.723-1.213 1.113.137-.486.273-.971.874-1.197.464.26.383.14.34.084zM536.808 1127.287c.469.53.592 1.342.715 2.152-.47-.05-.94-.101-1.554-.702-.144-.55.494-1.17.839-1.45zM1300.569 1404.783c-1.002 1.247-2.8 2.682-1.871-1.172.775-.087 1.1.262 1.87 1.172zM806.497 1404.513c.56.1.625.695.69 1.29-.395-.265-.791-.53-.69-1.29zM576.36 1211.795c.929-.1 1.362.44 1.799 1.511.004.532-.727 1.212-1.127 1.514-.859.177-1.25-.06-1.771-.692.068-.753.335-1.222 1.099-2.333zM1333.978 466.016c-.697-.123-1.394-.245-2.454-.769-.051-.706.26-1.012 1.049-1.766 1.081.282 1.684 1.01 1.811 2.197-.476.458-.406.338-.406.338z"/><path fill="none" d="M1333.879 466.199c.42-.116.86-.334 1.327-.437.09-.02.28.409.423.63-.367.192-.734.383-1.376.1-.275-.476-.345-.356-.374-.293zM1528.671 1214.683c-.423.628-1.143.948-1.862 1.267-.031-.558-.062-1.116.43-1.922.524-.248 1.137.347 1.432.655z"/><path fill="#FDEAB1" d="M759.58 481.527c-.011.234.009.512.063.46.035-.33-.031-.416-.063-.46z"/><path fill="none" d="M658.808 1289.287c.472.534.598 1.347.724 2.16-.472-.052-.944-.104-1.562-.708-.145-.553.492-1.172.838-1.452zM1472.522 1293.043c-1.494 1.831-3.057 2.418-1.853-1.405.795-.07 1.12.336 1.853 1.405zM689.888 537.88c-.356.62-.98.951-1.604 1.282-.009-.467-.018-.935.38-1.771.408-.37.957.198 1.224.488zM628.676 584.5c.56.012.69.464.82.915-.416-.159-.833-.317-.82-.915zM628.205 606.352c.1.937-.442 1.37-1.87 1.484-.886-.32-1.656-.896-1.656-.896.003-.622.261-1.11 1.13-1.696.822.047 1.288.326 2.396 1.108z"/><path fill="none" d="M625.802 607.841c-.292.728-.938 1.13-1.584 1.531-.084-.503-.168-1.006.105-1.97.356-.462 1.126.113 1.48.44zM1480.677 607.37c.61.47.875 1.254 1.14 2.038-.555.011-1.111.023-1.908-.516-.24-.55.423-1.207.768-1.522zM573.45 665.843c.334.66.118 1.162-.097 1.664-.15-.607-.3-1.214.098-1.664zM1446.565 1290.498c.535.1.594.685.654 1.27-.376-.262-.753-.524-.654-1.27zM706.52 1362.524c.582-.1.813.111 1.043.322-.465-.004-.93-.007-1.043-.322zM1562.501 772.54c.56.001.699.456.837.91-.419-.152-.838-.304-.837-.91zM726.383 1351.64c.706.359.96 1.167 1.216 1.975-.548.076-1.095.151-2.089-.182-.156-.72.133-1.032.873-1.792z"/><path fill="#FEFEFE" d="M2075.824 1032.251c-23.548-21.394-34.246-48.54-39.557-78.29-3.453-19.342-4.944-38.931-3.817-58.528 1.822-31.69 6.458-62.83 23.85-90.447 16.856-26.77 41.334-41.258 72.592-45.421 17.461-2.326 34.517-1.01 51.185 3.781 30.862 8.873 51.301 29.686 63.935 58.598 9.283 21.243 12.849 43.668 14.572 66.738 1.822 24.394-.06 48.352-4.548 72.173-3.476 18.45-10.279 35.78-21.01 51.333-17.036 24.69-40.541 38.492-70.353 42.212-23.998 2.995-47.034.551-68.759-10.357-6.186-3.107-11.722-7.509-18.09-11.792z"/><path fill="#FDFEFE" d="M2696.233 977.793c-2.102 13.364-2.872 26.139-6.422 38.087-6.34 21.338-18.711 38.171-41.434 44.785-29.499 8.586-61.264-3.712-74.03-32.852-4.214-9.621-7.817-19.985-9.086-30.33-3.464-28.238-3.218-56.425 7.868-83.422 9.778-23.812 30.296-37.658 55.82-37.722 27.238-.068 49.158 15.881 58.913 42.652 6.82 18.717 8.44 38.15 8.37 58.802zM4575.074 1016.562c-4.86-16.49-6.698-32.74-6.499-48.944.24-19.552 2.008-39.165 9.827-57.526 8.734-20.51 22.793-35.208 45.681-38.9 25.544-4.12 48.5 3.443 63.558 27.347 7.595 12.056 11.774 25.335 13.846 39.188 3.919 26.2 3.362 52.35-4.003 77.967-4.188 14.568-11.052 27.813-23.24 37.52-30.017 23.904-73.378 15.215-91.564-18.462-2.98-5.518-4.872-11.622-7.606-18.19zM3065.718 867.955c23.611 14.237 30.167 36.385 32.003 61.812h-128.345c2.157-23.492 8.498-44.836 28.508-58.763 21.223-14.772 44.183-14.003 67.834-3.049z"/></svg>